<?xml version="1.0" encoding="UTF-8"?>
<svg id="Layer_2" data-name="Layer 2" xmlns="http://www.w3.org/2000/svg" viewBox="0 0 224.01 244.17">
  <defs>
    <style>
      .cls-1 {
        fill: #fff;
        stroke-width: 0px;
      }
    </style>
  </defs>
  <g id="_ÎÓÈ_1" data-name="—ÎÓÈ_1">
    <path class="cls-1" d="M98.46,160.71c2.85-16.1,3.94-34.02,10.74-46.42.02-.04.02-.07,0-.1-.01-.03-.04-.04-.07-.03-3.54,2.09-6.97,4.85-10.16,8.01.3-7.01,1.43-14,4.77-20.06,3.36-6.04,8.19-11.27,13.79-15.39,5.61-4.09,11.99-7.29,18.76-8.74,6.83-1.29,13.88-1.6,20.82-.69,27.78,3.87,52.4,24.89,60.96,51.54,2.24,6.63,3.18,13.66,3.36,20.64.22,7-.6,14.03-2.28,20.84-3.2,13.66-9.8,26.5-18.71,37.32-8.89,10.89-20.39,19.53-33.25,25.21-6.45,2.79-13.16,4.96-20.03,6.45-6.9,1.39-13.91,2.15-20.94,2.32-28.16.44-56.41-9.54-77.77-27.97-21.59-18.14-36.9-43.54-43.04-71.04C-7.64,87.13,24.35,26.01,75.87,2.7c1.15-.55,1.86-1.53,1.58-2.17-.28-.64-1.46-.7-2.64-.14-13.08,6.05-25.03,14.43-35.34,24.46-10.21,10.14-18.79,21.9-25.37,34.69C.86,85.04-3.55,115.31,2.99,143.42c3.19,14.04,8.7,27.52,16.12,39.84,7.52,12.27,17,23.32,28.01,32.59,21.92,18.73,50.86,28.93,79.69,28.3,14.4-.36,28.8-3.28,41.98-9.24,13.18-5.89,25.01-14.92,34.05-26.19,4.62-5.56,8.5-11.71,11.68-18.19,3.24-6.45,5.73-13.3,7.29-20.36,3.32-14.06,2.98-29.08-1.54-42.9-9.24-27.57-34.79-48.99-63.77-52.57-7.23-1.02-14.56-.39-21.72,1.04-7.16,1.74-13.76,5.17-19.58,9.56-5.75,4.47-10.81,9.99-14.15,16.59-3.53,6.61-4.31,14.14-4.64,21.29-2.8-4.81-5.33-9.91-6.78-16.22-.01-.04-.03-.04-.06-.02-.02.02-.04.05-.05.1v.03c-1.19,10.51.38,19.71,2.3,28.45,1.98,8.72,4.55,16.89,6.56,25.17.01.04.06.07.06.07,0,0,.04-.02.05-.06Z"/>
  </g>
</svg>