<?xml version="1.0" encoding="UTF-8"?>
<svg id="Layer_2" data-name="Layer 2" xmlns="http://www.w3.org/2000/svg" viewBox="0 0 93.23 93.41">
  <defs>
    <style>
      .cls-1 {
        fill: none;
        stroke: #fff;
        stroke-miterlimit: 10;
        stroke-width: .92px;
      }
    </style>
  </defs>
  <g id="_ÎÓÈ_1" data-name="—ÎÓÈ_1">
    <g>
      <path class="cls-1" d="M92.52,28.46c.49-2.02.21-4.66-.65-6.13-.87-1.47-2.24-1.62-3.19-.37-1.32,1.75-1.76,4.53-3.54,4.36-1.17-.12-2.05-3.77-2.87-5.24-1.2-2.15-1.8-4.15-3.62-3.17-.9.48-1.85,1.24-2.73.63-.94-.66-1.49-2.73-2.43-3.41-.98-.71-2.1.36-2.78,1.94-.67,1.58-1.01,3.58-1.43,5.46-.49,2.21-1.12,4.37-2.08,5.9-.95,1.53-2.27,2.33-3.44,1.6-1.32-.82-2.18-3.34-2.69-5.88-.51-2.54-.78-5.27-1.47-7.63-.69-2.36-1.98-4.35-3.36-3.97-1.28.36-2.21,2.63-2.66,5-.57,2.99-.37,6.12-.73,9.16-.41,3.48-1.36,8.01-2.41,10.87-.33.89-.86,1.54-1.41,1.47-.56-.06-1.06-.84-1.36-1.78-.3-.94-.43-2.04-.57-3.12-.64-5.22-1.28-10.44-1.92-15.66-.43-3.54-.92-8.02-1.81-11.23-2.45-8.84-9.57-8.25-13.17-2.91-1.66,2.46-3.98,7.93-6.22,7.72-1.05-.1-1.95-1.47-2.96-2-4.68-2.49-5.48,8.31-6.44,14.42-.59,3.76-1.5,7.57-3.17,9.76-2.08,2.74-3.08-.25-4.76-2.21-1.71-1.99-4.45-3.88-6.39-2.41"/>
      <path class="cls-1" d="M.33,38.17c1.68-1.56,4.1-.23,5.66,1.29,1.53,1.49,2.47,3.95,4.36,1.5,1.55-1.99,2.42-5.36,3.1-8.55,1.14-5.35,2.28-14.22,6.68-11.84.96.52,1.83,1.74,2.82,1.88,2.15.29,4.39-4.34,6.03-6.55.52-.7,1.11-1.33,1.74-1.87,2.5-2.14,5.63-2.87,8.06-1.01,1.08.84,2.02,2.2,2.7,4.14.94,2.7,1.56,6.54,2.11,9.68.35,2.03.69,4.1,1.03,6.19.43,2.65.83,5.35,1.24,8.05.15,1,.3,2.02.6,2.9.29.88.75,1.62,1.27,1.75.51.12.99-.4,1.33-1.06,1.11-2.13,2.36-5.58,3.05-8.51.6-2.53.71-5.29,1.46-8.05.36-1.29.85-2.59,1.46-3.56.42-.67.89-1.18,1.4-1.43,1.36-.65,2.64.7,3.42,2.41.22.48.41.98.59,1.5.46,1.36.84,2.88,1.33,4.38.63,1.91,1.52,3.95,2.67,5.11.11.11.21.2.32.29,1.16.94,2.35.7,3.26-.21.91-.91,1.6-2.36,2.22-4.17.07-.21.15-.43.22-.65.47-1.4.89-3.02,1.48-4.43.69-1.64,1.74-3.05,2.66-2.61.85.41,1.33,2.2,2.17,2.7.79.46,1.64-.25,2.44-.71,1.62-.91,2.19.76,3.28,2.56.76,1.24,1.58,4.34,2.65,4.45,1.59.16,2.04-2.2,3.24-3.64.86-1.04,2.08-.84,2.87.47.99,1.62,1.34,4.57,1.21,6.51"/>
      <path class="cls-1" d="M.39,46.71c1.41-1.65,3.51-.88,4.92.18,1.37,1.02,2.26,2.93,3.97.79,1.43-1.79,2.27-4.72,3.03-7.35,1.34-4.62,2.81-11.53,6.92-9.27.91.5,1.74,1.59,2.68,1.75,2.07.37,4.21-3.42,5.84-5.39.51-.61,1.07-1.19,1.66-1.7,2.38-2.04,5.22-3.14,7.52-1.88,1.03.56,1.94,1.63,2.64,3.19.99,2.19,1.75,5.39,2.41,8.13.42,1.76.82,3.59,1.21,5.48.49,2.39.95,4.86,1.41,7.35.17.92.34,1.86.62,2.68.29.82.71,1.53,1.19,1.72.47.19.89-.23,1.24-.64,1.21-1.45,2.7-3.76,3.7-6.14.84-2.02,1.25-4.43,2.19-6.94.44-1.19,1-2.4,1.64-3.39.44-.68.91-1.24,1.42-1.58,1.35-.91,2.61-.21,3.48.85.24.29.47.61.68.96.55.9,1.07,2,1.68,3.17.79,1.5,1.81,3.27,2.97,4.59.11.12.21.23.32.34,1.14,1.15,2.21,1.48,3.08,1.19.86-.3,1.61-1.05,2.37-2.43.09-.16.18-.34.27-.52.6-1.16,1.09-2.71,1.7-4.19.7-1.71,1.71-3.87,2.55-3.28.7.49,1.18,1.66,1.92,1.99.69.31,1.44-.36,2.16-.79,1.41-.85,1.95.51,2.95,1.94.7,1.01,1.46,3.56,2.43,3.66,1.41.14,1.86-1.79,2.94-2.93.77-.82,1.84-.58,2.56.57,1.11,1.77,1.54,5.03,1.77,6.88"/>
      <path class="cls-1" d="M.44,55.25c1.14-1.74,2.92-1.52,4.19-.94,1.2.55,2.05,1.92,3.57.08,1.31-1.59,2.14-4.1,2.96-6.15,1.57-3.91,3.34-8.85,7.16-6.7.86.49,1.66,1.43,2.55,1.62,1.98.44,4.03-2.51,5.65-4.23.5-.53,1.03-1.04,1.59-1.52,2.26-1.93,4.8-3.4,6.98-2.75.97.29,1.85,1.05,2.59,2.23,1.04,1.68,1.93,4.24,2.7,6.59.49,1.49.96,3.09,1.4,4.77.56,2.13,1.07,4.37,1.58,6.64.19.84.37,1.7.65,2.46.28.76.67,1.43,1.11,1.68.43.25.85.09,1.15-.22,1.43-.24,3.04-1.95,4.34-3.78,1.07-1.51,1.8-3.56,2.92-5.83.53-1.08,1.15-2.22,1.82-3.22.46-.68.94-1.29,1.44-1.73,1.34-1.17,2.59-1.12,3.55-.71.27.11.52.25.78.42.64.44,1.3,1.12,2.03,1.96.96,1.09,2.1,2.58,3.28,4.06.11.13.21.26.32.39,1.12,1.37,2.07,2.26,2.89,2.58.81.32,1.62.27,2.52-.7.11-.11.21-.25.32-.38.73-.92,1.3-2.41,1.92-3.94.72-1.78,1.6-3.54,2.43-3.95.62.14,1.02,1.11,1.66,1.28.6.16,1.25-.46,1.87-.87,1.21-.79,1.72.25,2.61,1.33.64.78,1.35,2.79,2.21,2.88,1.22.13,1.68-1.38,2.63-2.21.69-.6,1.61-.33,2.25.68,1.23,1.93,1.74,5.5,2.33,7.26"/>
      <path class="cls-1" d="M.5,63.79c.87-1.82,2.31-2.16,3.45-2.05,1.04.1,1.84.92,3.17-.64,1.19-1.39,2.03-3.45,2.89-4.94,1.84-3.19,3.87-6.16,7.4-4.13.81.47,1.58,1.27,2.41,1.5,1.89.51,3.85-1.61,5.45-3.07.48-.44.99-.89,1.52-1.34,2.14-1.82,4.38-3.66,6.44-3.61.91.02,1.77.47,2.53,1.27,1.1,1.16,2.11,3.09,3,5.04.56,1.22,1.09,2.58,1.58,4.05.63,1.86,1.19,3.88,1.75,5.94.2.76.41,1.53.68,2.24.27.7.63,1.34,1.02,1.65.39.31.76.31,1.06.2,1.55.64,3.37-.15,4.98-1.42,1.29-1.02,2.34-2.69,3.65-4.73.62-.97,1.3-2.04,2-3.05.48-.69.96-1.34,1.46-1.88,1.33-1.44,2.56-2.03,3.61-2.27.29-.07.58-.11.87-.12.73-.02,1.53.23,2.39.75,1.12.67,2.39,1.9,3.58,3.54.11.15.21.29.32.44,1.11,1.58,1.93,3.03,2.71,3.98.76.93,1.63,1.59,2.67,1.03.12-.07.25-.15.38-.25.86-.67,1.5-2.1,2.14-3.7.74-1.85,1.53-3.84,2.32-4.63.51-.04.87.57,1.4.58.51.01,1.05-.57,1.59-.96,1-.73,1.49-.01,2.27.71.59.55,1.23,2.01,1.99,2.09,1.03.11,1.5-.97,2.33-1.5.6-.38,1.37-.08,1.94.78,1.36,2.07,1.94,5.96,2.89,7.64"/>
      <path class="cls-1" d="M.55,72.33c.6-1.91,1.71-2.77,2.71-3.17.86-.34,1.64-.09,2.78-1.35,1.08-1.19,1.95-2.77,2.82-3.74,2.15-2.39,4.4-3.47,7.64-1.55.75.45,1.49,1.11,2.27,1.37,1.8.59,3.67-.7,5.26-1.91.47-.35.95-.75,1.45-1.17,2.01-1.71,3.96-3.92,5.9-4.48.85-.25,1.7-.11,2.47.31,1.17.64,2.28,1.95,3.3,3.49.63.95,1.22,2.08,1.77,3.34.7,1.6,1.31,3.4,1.91,5.24.22.68.44,1.37.71,2.02.27.64.59,1.24.94,1.62.34.38.69.46.97.62,1.77,1.02,3.7,1.63,5.62.95,1.51-.54,2.89-1.81,4.38-3.62.71-.86,1.45-1.86,2.18-2.88.5-.7.99-1.4,1.48-2.03,1.32-1.7,2.53-2.94,3.67-3.83.32-.25.64-.48.96-.66.82-.47,1.76-.65,2.74-.46,1.29.25,2.69,1.22,3.89,3.01.11.16.21.32.31.49,1.09,1.79,1.79,3.8,2.52,5.37.71,1.53,1.65,2.91,2.81,2.76.14-.02.28-.06.43-.12,1-.41,1.71-1.8,2.36-3.45.76-1.91,1.47-4.14,2.21-5.3.41-.22.71.02,1.15-.13.42-.14.86-.67,1.3-1.04.8-.67,1.26-.28,1.93.1.54.31,1.12,1.23,1.77,1.3.85.09,1.31-.56,2.02-.79.52-.16,1.14.16,1.63.88,1.49,2.21,2.14,6.43,3.45,8.01"/>
      <path class="cls-1" d="M.61,80.88c.33-1.99,1.11-3.35,1.98-4.29.69-.75,1.43-1.09,2.38-2.06.96-.99,1.87-2.03,2.76-2.54,2.48-1.43,4.93-.79,7.88,1.02.7.43,1.41.96,2.14,1.24,1.71.68,3.48.2,5.07-.74.46-.27.91-.6,1.37-.99,1.89-1.61,3.54-4.17,5.36-5.35.8-.51,1.62-.71,2.42-.65,1.23.1,2.46.81,3.59,1.94.69.69,1.35,1.58,1.95,2.63.77,1.34,1.43,2.91,2.08,4.53.24.6.48,1.21.74,1.8.26.58.55,1.14.86,1.59.3.44.61.73.89,1.04,1.88,2.14,4.04,3.4,6.26,3.31,1.74-.07,3.44-.94,5.11-2.51.8-.75,1.6-1.67,2.36-2.72.51-.71,1.01-1.45,1.5-2.18,1.31-1.96,2.51-3.85,3.74-5.39.35-.43.7-.84,1.06-1.21.92-.92,1.99-1.54,3.09-1.67,1.46-.18,2.98.53,4.19,2.49.11.17.21.35.31.54,1.08,2,1.66,4.57,2.34,6.77.67,2.14,1.66,4.23,2.96,4.49.16.03.32.03.48.01,1.13-.16,1.92-1.49,2.59-3.21.77-1.98,1.31-4.62,2.09-5.97.27-.47.56-.54.89-.84.32-.3.67-.77,1.02-1.12.59-.6,1.04-.58,1.59-.52.49.05,1,.45,1.56.51.66.07,1.13-.15,1.72-.07.43.05.91.4,1.32.99,1.62,2.33,2.34,6.89,4.01,8.39"/>
      <path class="cls-1" d="M.66,89.42c.17-5.46,3.13-9.22,5.91-9.51,2.79-.29,5.46,1.9,8.12,3.59,2.65,1.69,5.62,2.89,8.18.72,1.77-1.5,3.12-4.43,4.82-6.22,2.59-2.73,5.93-2.45,8.39.71,1.76,2.25,3,5.73,4.59,8.41,4.15,7.03,10.74,7.77,15.27,1.72,2.37-3.16,4.13-7.82,6.48-11.03,2.35-3.21,5.8-4.63,7.94-.92,1.29,2.22,1.77,5.68,2.47,8.75.7,3.07,1.93,6.23,3.64,6.37,2.71.23,3.59-6.04,4.78-9.6,1.49-4.44,4.16-5.47,6.38-2.42,1.76,2.43,2.54,7.35,4.57,8.77"/>
    </g>
  </g>
</svg>