<?xml version="1.0" encoding="UTF-8"?>
<svg id="Layer_2" data-name="Layer 2" xmlns="http://www.w3.org/2000/svg" viewBox="0 0 93.41 93.41">
  <defs>
    <style>
      .cls-1 {
        fill: none;
        stroke: #fff;
        stroke-miterlimit: 10;
        stroke-width: .92px;
      }
    </style>
  </defs>
  <g id="_ÎÓÈ_1" data-name="—ÎÓÈ_1">
    <g>
      <path class="cls-1" d="M39.49,2.3c1.9.73,3.8,1.48,5.8,1.78,4.04.6,8.09-.67,12.14-1.18,4.05-.51,8.66,0,11.35,3.26,2.49,3.02,2.61,7.51,4.56,10.95,1.96,3.45,5.5,5.44,8.9,7.21,3.4,1.77,6.98,3.61,9.15,6.91,1.67,2.55,2.18,6.31.65,9.06-1.88,3.38-3.46,7.1-5.49,10.54-3.73,6.34-4.07,16.69-5.53,23.99-.72,3.58-1.94,7.78-5.24,8.81-3.04.95-6.43-1.39-9.4-.2-2.44.98-3.57,3.91-5.4,5.9-2.35,2.55-5.87,3.48-9.22,3.61-7.27.27-14.6-2.87-19.67-8.43-3.37-3.69-6.26-8.27-9.93-11.62-4.08-3.73-8.62-1.64-13.24-2.87-2.23-.59-4-2.49-5.08-4.64-1.08-2.16-1.58-4.59-2.07-6.98-.73-3.58-1.45-7.2-1.25-10.86.27-4.77,2.61-8.06,6.24-10.64,3.48-2.46,7.73-4.27,7.94-9.45.09-2.22-.47-4.4-.67-6.61-.51-5.81,1.72-11.82,5.82-15.69C23.94,1.27,29.81-.37,35.16.87c1.48.34,2.9.88,4.33,1.43Z"/>
      <path class="cls-1" d="M81.95,51.71c-2.83,5.26-3.33,13.49-4.73,19.32-.68,2.84-1.76,6.1-4.42,6.98-2.59.85-5.46-.85-8.03.05-2.11.74-3.23,2.91-4.89,4.38-2.12,1.88-5.12,2.55-7.97,2.68-5.84.24-11.71-1.98-15.89-6.03-2.78-2.69-5.21-6.03-8.21-8.53-3.31-2.75-6.95-1.2-10.67-2.19-2.22-.6-4.02-2.41-5.12-4.55-.42-.82-.75-1.68-1-2.58-.4-1.43-.63-2.92-.78-4.4-.39-3.56-.27-7.13.22-10.49.55-3.72,2.25-6.4,5.12-8.52,2.75-2.04,6.07-3.59,6.39-7.67.14-1.76-.21-3.5-.28-5.25-.19-4.6,1.68-9.35,4.96-12.47,3.3-3.13,7.93-4.56,12.2-3.8,1.18.21,2.32.58,3.46.95,1.52.5,3.04,1.04,4.65,1.21,3.4.36,6.84-.64,10.26-.95.82-.07,1.65-.1,2.49-.06,2.67.13,5.32.93,7.11,2.95,2.21,2.5,2.6,6.15,4.3,9.05,1.72,2.92,4.57,4.79,7.27,6.52,2.7,1.72,5.49,3.51,7.18,6.41,1.31,2.25,1.71,5.41.57,7.82-1.41,2.96-2.6,6.19-4.2,9.17Z"/>
      <path class="cls-1" d="M77.37,52.59c-1.93,4.18-2.58,10.29-3.92,14.64-.65,2.09-1.58,4.43-3.6,5.14-2.14.75-4.49-.31-6.66.3-1.77.5-2.9,1.91-4.37,2.86-1.89,1.22-4.37,1.63-6.71,1.75-4.41.23-8.82-1.09-12.11-3.63-2.19-1.68-4.16-3.8-6.49-5.43-2.54-1.78-5.28-.77-8.09-1.52-2.21-.6-4.04-2.34-5.15-4.46-.43-.81-.75-1.68-.98-2.57-.37-1.42-.5-2.92-.52-4.41-.05-3.55.87-7,1.7-10.12.71-2.65,1.89-4.73,4-6.4,2.02-1.61,4.42-2.9,4.83-5.88.18-1.31.06-2.59.11-3.89.13-3.4,1.63-6.88,4.1-9.26,2.49-2.39,5.89-3.62,9.07-3.33.88.08,1.73.27,2.59.47,1.14.27,2.29.58,3.5.63,2.77.11,5.59-.62,8.39-.72.67-.02,1.35-.01,2.02.05,2.16.2,4.29.92,5.83,2.49,1.93,1.98,2.59,4.78,4.05,7.15,1.48,2.39,3.64,4.14,5.64,5.82,1.99,1.66,3.99,3.42,5.2,5.92.94,1.95,1.24,4.51.49,6.57-.93,2.55-1.74,5.28-2.9,7.8Z"/>
      <path class="cls-1" d="M72.78,53.48c-1.07,3.07-1.82,7.08-3.12,9.97-.61,1.35-1.4,2.77-2.77,3.31-1.68.66-3.52.23-5.29.54-1.44.25-2.57.91-3.86,1.34-1.67.55-3.61.7-5.45.82-2.98.2-5.93-.2-8.32-1.22-1.6-.68-3.1-1.57-4.77-2.34-1.76-.81-3.61-.33-5.52-.84-2.2-.6-4.07-2.27-5.19-4.36-.43-.8-.76-1.67-.96-2.56-.33-1.42-.38-2.92-.26-4.41.29-3.54,1.89-6.88,3.18-9.76.71-1.6,1.53-3.06,2.88-4.28,1.3-1.18,2.77-2.22,3.28-4.1.23-.85.33-1.69.5-2.53.45-2.19,1.59-4.42,3.24-6.04,1.68-1.66,3.85-2.68,5.94-2.85.58-.05,1.15-.04,1.72-.01.77.03,1.54.12,2.35.06,2.14-.16,4.34-.59,6.52-.48.52.02,1.04.08,1.56.16,1.66.28,3.27.9,4.55,2.02,1.66,1.45,2.58,3.42,3.8,5.26,1.23,1.86,2.71,3.49,4.01,5.13,1.28,1.62,2.49,3.32,3.22,5.42.57,1.65.77,3.62.4,5.33-.45,2.13-.89,4.36-1.61,6.44Z"/>
      <path class="cls-1" d="M63.94,61.13c2.43-1.16,3.87-3.97,4.26-6.77,1.09-7.93-.47-17.46-7.18-21.87-1.01-.66-2.12-1.2-3.27-1.55-1.89-.58-3.88-.66-5.73-.02-4.99,1.72-8.16,8-11.61,11.85-2.99,3.35-5.63,9.05-4.66,13.81.66,3.25,3.15,6,6.17,6.83,3.68,1.01,6.97-1.41,10.55-1.77,3.66-.36,8.02,1.15,11.47-.5Z"/>
    </g>
  </g>
</svg>