<?xml version="1.0" encoding="UTF-8"?>
<svg id="Layer_2" data-name="Layer 2" xmlns="http://www.w3.org/2000/svg" viewBox="0 0 93.41 93.41">
  <defs>
    <style>
      .cls-1 {
        fill: none;
        stroke: #fff;
        stroke-linecap: round;
        stroke-linejoin: round;
        stroke-width: .92px;
      }
    </style>
  </defs>
  <g id="_ÎÓÈ_1" data-name="—ÎÓÈ_1">
    <path class="cls-1" d="M80.16,20.97c-.05-.82.72-.72.58-1.53-.21-1.24-.56-2.47-1.02-3.66-.5-1.28-1.4-2.7-2.97-2.87-.49-.05-1,.03-1.48-.07-1.19-.23-1.76-1.35-2.28-2.29-.47-.86-1.04-1.68-1.71-2.44-.23-.26-.5-.54-.88-.59-1.41-.21-1.95,1.76-3.71,1.26-1.41-.4-2.73-2.56-3.66-3.49-.68-.68-1.39-1.38-2.31-1.81-.92-.43-2.12-.55-3-.06-.71.4-1.17,1.15-1.99,1.33-.81.18-1.63-.3-2.13-.87s-.79-1.26-1.31-1.82c-1.06-1.14-2.95-1.57-4.64-1.33-1.69.24-3.2,1.06-4.48,2.02-.97.73-1.98,1.61-3.27,1.66-2.08.09-3.32-1.86-4.53-3.31-.29-.35-.72-.72-1.21-.63-.25.04-.45.19-.63.34-1.76,1.4-3.36,2.95-4.77,4.62-.39.46-.78.94-1.34,1.23-2.22,1.16-4.88-1.24-7.48-1.03-2.9.24-4.46,3.11-4.71,5.24-.19,1.6-.76,3.15-.89,4.76-.08,1.04.21,2.25-.14,3.27-.74,2.19-4.22,3.94-5.59,1.14-.27-.54-1-1.06-1.59-.75-.32.17-.43.51-.5.83-.47,1.97-.11,3.96-1.13,5.8-.55.99-3.17,3.67-2.71,4.82-.67-1.67-2.16,14.35-1.88,10.26-.44,6.45.08,4.28.43,9.47.98-4.06,1.38,5.19,2.51,8.17,1.35-.33-4.67,5.01-2.96,7.71,1.58,4.59,3.73,4.66,5.96,6.9,2.74-5.26,4.89,1.42,7.43,5.28,2.9-1.45,5.71,1.21,8.59,5.14,3.34-2.77,6.13,4.82,9.72,2.26,4.03-8.89,7.32-5.12,10.45,2.26,3.82,7.92,8.27,4.56,12.6-.14,4.36-5.19,8.51-10.46,11.6-4.2,3.34,2.49,6.5,3.35,9.92-4.89,3.65-11.71,5.7-5.13,8-8.74,3.17-16.47,4.17-7.38,5.46-10.16,1.69-8.72,1.49,2.97,2.36-9.88.32-4.65-.32-3.08-.99-7.93-.7-4.34-1.83-9.11-3.57-10.67-1.33-7.65-3.51-8.68-6.03-9.45-2.59.31-4.99-7.05-8.33-4.32-3.2.67-6.86,4.2-9.97-3.15-3.51-1.45-7.56,2.31-11.14-2.86-4.07,7.93-6.24-10.48-10.31,1.62-2.97-4.06-6.39,1.03-9.29,1.89-3.02,2.66-6.02,8.35-7.99,3.37-2.74,6.34-4.01-4.73-6.52,7.67-2,4.96-3.49,7.6-4.37,7.47-1.22,4.88-2.01,9.37-1.96,8.76-.1,1.47-.16,8.73.59,9.52,1.04-3.45,1.62,5.36,3.1,5.55.91,8.73,3.24,1.19,4.94,6.82,2.06.34,3.86,8.42,6.69,4.33,2.6-.63,5.07,3.79,8.05,2.92,3.23-4.56,5.8,2.97,9.05,1.95,3.24-5.62,6.16-7.78,8.28-.35,3.39-11.26,5.13-.17,7.59-2.49,2.95-9.54,4.42-.05,6.69-5.99,1.94-.91,3.34,2.49,5.06-2.96,1.62-4.05,2.27,2.03,3.6-6.86,1.08-5.31,1.22-1.69,1.54-6.28-.12,1.81-.25-7.89-1.53-9.81-.6-12.03-2.59-12.94-5.49-7.43-2.55.31-5.44-1.61-8.48-6.08-3.11-3.44-6.37-9.72-10.76-1.87-3.51.56-7.16,5.58-9.95,2.2-2.75-3.79-5.8,1.15-8.22,3.21-2.36,1.25-4.42,4.49-5.7,4.53-1.98,10.46-2.61,9.28-2.67,10.26.14-2.07-.09,10.72,1.23,8.14.9,3.7,2.59,3.12,4.46,5.82,1.62,6.34,4.32,2.58,6.9,4.51,2.56,2.16,4.98,10.47,8.69,1.93,3.33-7.67,5.68-2.73,7.98-.63,2.69-3.63,4.95-4.63,6.73-3.75,2.27-6.27,3.38-.56,4.62-3.68,1.1-1.03,2.03-6.31,2.16-8.3-.29,4.34-1.21-12.5-4.61-11.31-2.65-9.85-7.43-7.07-12.62-5.21-.98.35-1,.24-2.05.34-1.06.1-2.2-.14-2.94-.78-.54-.47-.83-1.11-1.29-1.63-.46-.53-1.24-.96-1.97-.75-.67.19-1.06.86-1.75.97-.64.1-1.22-.32-1.66-.73-.81-.76-1.54-1.58-2.16-2.46"/>
  </g>
</svg>