<?xml version="1.0" encoding="UTF-8"?>
<svg id="Layer_2" data-name="Layer 2" xmlns="http://www.w3.org/2000/svg" viewBox="0 0 93.41 93.41">
  <defs>
    <style>
      .cls-1 {
        fill: none;
        stroke: #fff;
        stroke-miterlimit: 10;
        stroke-width: .92px;
      }
    </style>
  </defs>
  <g id="_ÎÓÈ_1" data-name="—ÎÓÈ_1">
    <g>
      <path class="cls-1" d="M.46.46h92.48v92.27h-32.55c-8.85.28-18.14.28-27.38,0H.46v-32.48c0-8.93,0-18.2,0-27.31V.46Z"/>
      <path class="cls-1" d="M.46,82.48h19.98c1.89.13,3.5.86,5.46,1.27,13.57,2.78,27.5,3.7,41.59-.08,1.95-.41,3.59-1.07,5.48-1.19h19.98"/>
      <path class="cls-1" d="M.46,72.23h9.62c2.96,0,4.88,1.39,7.9,2.61,17.77,9.84,40.06,8.91,57.35-.13,3.01-1.19,5.03-2.48,7.99-2.48h9.62"/>
      <path class="cls-1" d="M.46,61.98s3.56.05,7.44.99c24.14,15.22,53.85,16.15,77.46-.08,3.96-.89,7.59-.92,7.59-.92"/>
      <path class="cls-1" d="M.46,51.73c27.87,9.79,58.51,12.57,86.28.48,3.14-.41,6.21-.48,6.21-.48"/>
      <path class="cls-1" d="M.46,41.47c28.79-8.68,58.51-15.16,86.22-.54,3.16.47,6.26.54,6.26.54"/>
      <path class="cls-1" d="M.46,31.22s3.6-.04,7.56-.98c24.02-15.97,52.81-15.97,77.23.08,4.04.89,7.69.91,7.69.91"/>
      <path class="cls-1" d="M.46,20.97h9.62c2.96,0,5.04-1.29,8.1-2.47,17.58-8.86,38.94-9.79,56.97.13,3.04,1.16,5.22,2.34,8.18,2.34h9.62"/>
      <path class="cls-1" d="M.46,10.72h19.98c1.9-.11,3.6-.7,5.57-1.08,13.46-3.71,28.32-3.71,41.37.07,1.96.37,3.69.9,5.59,1.01h19.98"/>
      <path class="cls-1" d="M82.67.46v19.93c.1,1.9.64,3.61,1.02,5.57,3.14,14.24,3.14,27.21.11,41.31-.39,1.96-1.02,3.64-1.13,5.53v19.93"/>
      <path class="cls-1" d="M72.39.46v9.6c0,2.95,1.17,5.13,2.34,8.15,8.38,18.29,9.31,39.6.19,56.9-1.2,3.05-2.53,5.07-2.53,8.03v9.6"/>
      <path class="cls-1" d="M62.12.46s.01,3.65.89,7.69c14.53,23.71,17.32,53.36.11,77.1-.96,3.92-1.01,7.49-1.01,7.49"/>
      <path class="cls-1" d="M51.84.46s.07,3.12.53,6.29c14.03,27.9,8.46,57.54-.53,85.99"/>
      <path class="cls-1" d="M41.57.46s-.07,3.1-.49,6.25c-14.61,27.93-7.18,57.58.49,86.03"/>
      <path class="cls-1" d="M31.29.46s-.02,3.63-.9,7.62c-15.06,23.79-15.99,53.44-.11,77.25.96,3.86,1.01,7.41,1.01,7.41"/>
      <path class="cls-1" d="M21.01.46v9.6c0,2.95-1.24,5.02-2.43,8.02-9.76,17.49-8.83,38.8-.2,57.16,1.22,3.02,2.63,4.94,2.63,7.89v9.6"/>
      <path class="cls-1" d="M10.74.46v19.93c-.12,1.89-.75,3.55-1.15,5.5-3.55,13.39-3.55,28.21-.11,41.46.41,1.96,1.14,3.57,1.26,5.46v19.93"/>
    </g>
  </g>
</svg>