<?xml version="1.0" encoding="UTF-8"?>
<svg id="Layer_2" data-name="Layer 2" xmlns="http://www.w3.org/2000/svg" viewBox="0 0 86.06 86.06">
  <defs>
    <style>
      .cls-1 {
        fill: none;
        stroke: #fff;
        stroke-miterlimit: 10;
        stroke-width: .92px;
      }
    </style>
  </defs>
  <g id="_ÎÓÈ_1" data-name="—ÎÓÈ_1">
    <g>
      <path class="cls-1" d="M46.74,43.03c5.6,5.15,1.43,9.31-3.71,3.71-5.15,5.6-9.31,1.43-3.71-3.71-5.6-5.15-1.43-9.31,3.71-3.71,5.15-5.6,9.31-1.43,3.71,3.71Z"/>
      <path class="cls-1" d="M43.03,50.25c-10.01,10.89-18.11,2.78-7.22-7.22-10.89-10.01-2.78-18.11,7.22-7.22,10.01-10.89,18.11-2.78,7.22,7.22,10.89,10.01,2.78,18.11-7.22,7.22Z"/>
      <path class="cls-1" d="M43.02,53.75c-14.87,16.18-26.91,4.12-10.72-10.73-16.18-14.87-4.12-26.91,10.73-10.72,14.87-16.18,26.91-4.13,10.72,10.73,16.18,14.87,4.12,26.91-10.73,10.72Z"/>
      <path class="cls-1" d="M43.02,57.26c-19.73,21.47-35.71,5.47-14.23-14.24-21.46-19.73-5.47-35.71,14.24-14.23,19.73-21.47,35.71-5.47,14.23,14.24,21.46,19.73,5.47,35.71-14.24,14.23Z"/>
      <path class="cls-1" d="M43.02,60.77c-24.59,26.75-44.5,6.82-17.73-17.74C-1.46,18.43,18.47-1.48,43.04,25.29c24.59-26.75,44.5-6.82,17.73,17.74,26.75,24.59,6.82,44.5-17.74,17.73Z"/>
      <path class="cls-1" d="M43.02,64.27c-29.45,32.04-53.3,8.17-21.24-21.25C-10.26,13.57,13.61-10.28,43.04,21.78c29.45-32.04,53.3-8.17,21.24,21.25,32.04,29.45,8.17,53.3-21.25,21.24Z"/>
      <path class="cls-1" d="M67.78,43.04c37.33,34.31,9.52,62.1-24.76,24.74-34.31,37.33-62.1,9.52-24.74-24.76C-19.05,8.71,8.76-19.08,43.04,18.28c34.31-37.33,62.1-9.52,24.74,24.76Z"/>
    </g>
  </g>
</svg>