<?xml version="1.0" encoding="UTF-8"?>
<svg id="Layer_2" data-name="Layer 2" xmlns="http://www.w3.org/2000/svg" viewBox="0 0 172.85 75.22">
  <defs>
    <style>
      .cls-1 {
        fill: #fff;
        stroke-width: 0px;
      }
    </style>
  </defs>
  <g id="_ÎÓÈ_1" data-name="—ÎÓÈ_1">
    <path class="cls-1" d="M0,18.63l6.64,2.49,6.05-1.78,12.69,6.05,11.74-2.97,2.25.47,2.61-.89,6.41,3.86,14.71-1.66s10.74,9.85,11.03,9.85,8.54-3.2,8.54-3.2l-5.34-5.46-2.73-9.37h-5.81l-3.8-7.47L58.49,0l7.12,7.47,3.56,6.76,6.17.36,5.69,9.73,5.22,2.14,8.3,6.41,13.17-7.59,11.86,4.03,13.41-7.36,8.66,1.66,3.2-.12,10.68-10.44,4.98-2.14,12.34-.83-11.51,1.42-4.39,2.25-11.57,13.2-2.76,1.07-1.51,3.83-4.89-.89-8.1,2.85-3.8,4.63,2.25,5.81-9.73,10.91v6.41l-6.88,3.44-3.44,3.08s-2.67,7.41-2.61,7.12c.06-.3,1.54-7.59,1.54-7.59l3.68-3.32,6.17-3.44-.59-7,7.36-10.68-2.14-5.34-6.17-2.25-5.69.36-8.3,8.42-8.42-4.51-8.42,4.98-9.61-2.49-6.41,1.19-4.75-.59-5.34,5.58-4.15,3.08-6.52-.24-4.86,2.61-4.51,4.86,4.27-5.58,5.34-3.08,5.93.12,3.8-2.85,5.46-6.05,4.51-.95-5.69-8.07-9.61.47-9.02-8.19-3.08.47-1.3-.95-11.63,2.49-12.93-6.52-5.81,1.78-7-3.32Z"/>
  </g>
</svg>