<?xml version="1.0" encoding="UTF-8"?>
<svg id="Layer_2" data-name="Layer 2" xmlns="http://www.w3.org/2000/svg" viewBox="0 0 281.1 291.91">
  <defs>
    <style>
      .cls-1 {
        fill: #fff;
        stroke-width: 0px;
      }
    </style>
  </defs>
  <g id="_ÎÓÈ_1" data-name="—ÎÓÈ_1">
    <g>
      <path class="cls-1" d="M131.43,207.51c5.8-11.34,18.63-18.32,32.92-15.11,14.3,3.21,26.41,24.8,20.19,39.93-6.22,15.13-27.88,8.54-39.85,2.34-11.97-6.2-19.07-15.82-13.27-27.16ZM176.24,232.34c3.67-8.97-4.02-23.48-13.28-27.39-9.25-3.91-18.74-2.11-21.85,6.6s1.45,15.12,8.69,18.89c7.23,3.77,22.77,10.87,26.44,1.9Z"/>
      <path class="cls-1" d="M111.79,197.19c11.4-17.65,31.1-26.99,55.15-31.94,24.05-4.95,42.34,32.37,32.22,58.87-10.13,26.5-46.36,26.24-68.31,15.86-21.95-10.39-30.45-25.14-19.06-42.79ZM192.29,228.54c8.9-20.52-6.99-52-26.35-50.05-19.36,1.95-36.03,8.58-44.74,23.71-8.71,15.13-1.06,25.8,16.11,35.21,17.17,9.41,46.07,11.64,54.98-8.87Z"/>
      <path class="cls-1" d="M92.68,187.02c15.38-24.76,44.65-26.58,75.27-49.79,30.62-23.21,60.05,43.97,45.73,80.44-14.31,36.48-68.65,38.3-99.2,25.91-30.55-12.39-37.18-31.79-21.8-56.56ZM206.63,220.94c13.01-30.84-11.14-84.11-38.99-70.4-27.85,13.71-52.17,20.17-65.77,41.36-13.6,21.18-5.96,38.45,20.66,50.08,26.61,11.63,71.09,9.8,84.11-21.04Z"/>
      <path class="cls-1" d="M74.37,176.11c20.14-33.79,53.72-13.64,92.59-66.24,38.87-52.6,78.6,50.02,61.23,101.14-17.38,51.12-92.16,49.43-131.18,35.84-39.02-13.59-42.78-36.94-22.64-70.74ZM221.34,213.56c16.21-43.93-18.64-127.97-53.23-91.22-34.59,36.76-66.91,30.04-85.1,59.14-18.19,29.09-12.54,50.4,22.34,63.66,34.88,13.26,99.77,12.35,115.98-31.58Z"/>
      <path class="cls-1" d="M56.6,164.46c23.8-44.12,64.95,9.53,107.68-79.85,42.73-89.38,100.3,54.16,78.45,124.9-21.85,70.74-112.56,55.72-161.54,42.71-48.98-13.01-48.38-43.64-24.59-87.76ZM235.88,209.21c19.44-58.75-27.99-183.27-70.06-112.82-42.07,70.46-78.7,35.26-100.76,73.68-22.06,38.42-20.35,66.37,22.94,79.3,43.29,12.93,128.43,18.59,147.87-40.16Z"/>
      <path class="cls-1" d="M38.34,152.49c27.59-53.89,76.88,29.95,123.56-90.71,46.68-120.67,122.76,57.53,96.7,149-26.06,91.46-135.72,60.32-192.22,50.1-56.5-10.22-55.62-54.49-28.03-108.38ZM250.81,209.77c23.65-82.17-43.49-245.28-88.1-136.92-44.61,108.36-89.32,35.72-115.4,85.11-26.08,49.4-27.24,86.9,25.49,97.89,52.74,10.99,154.36,36.08,178.01-46.09Z"/>
      <path class="cls-1" d="M18.86,143.03c29.95-64.42,91.49,28.3,141.63-101.19,50.13-129.5,142,73.87,116.11,173.85-25.9,99.98-155.53,79.36-220.99,60.8C-9.85,257.93-11.1,207.45,18.86,143.03ZM267.96,212.32c24.98-96.64-57.76-287.7-106.74-161.64-48.98,126.05-104.53,37.65-133.04,96.93C-.33,206.87-.96,253.65,60.28,268.23c61.25,14.58,182.69,40.74,207.67-55.91Z"/>
    </g>
  </g>
</svg>